# xmcd
#
# Track frame offsets:
#	150
#	12850
#	39869
#	54220
#	68419
#	80063
#	112751
#	131434
#	148885
#
# Disc length: 2237 seconds
# Revision: 0
# Processed by: cddbd v1.5.2PL0 Copyright (c) Steve Scherf et al.
# Submitted via: dBpowerAMP V12.0
#
DISCID=6808bb09
DTITLE=Rhythm X Revival - Rhythm X Revival
DYEAR=2018
DGENRE=Blues Soul
TTITLE0=Hit The Road Running
TTITLE1=Good Man Feeling Bad
TTITLE2=So Darn Mean
TTITLE3=Man And Woman
TTITLE4=Hell Of A Ride
TTITLE5=The Beast
TTITLE6=Almost Every Night
TTITLE7=You Drive Me Crazy
TTITLE8=Have You Ever Been So Lonely
EXTD=
EXTT0=
EXTT1=
EXTT2=
EXTT3=
EXTT4=
EXTT5=
EXTT6=
EXTT7=
EXTT8=
PLAYORDER=
